<?xml version="1.0" encoding="UTF-8"?>
<!DOCTYPE svg PUBLIC "-//W3C//DTD SVG 1.1//EN" "http://www.w3.org/Graphics/SVG/1.1/DTD/svg11.dtd">
<svg xmlns="http://www.w3.org/2000/svg" version="1.1" width="2216px" height="1392px" style="shape-rendering:geometricPrecision; text-rendering:geometricPrecision; image-rendering:optimizeQuality; fill-rule:evenodd; clip-rule:evenodd" xmlns:xlink="http://www.w3.org/1999/xlink">
<g><path style="opacity:1" fill="#f4f4f4" d="M -0.5,-0.5 C 738.167,-0.5 1476.83,-0.5 2215.5,-0.5C 2215.5,390.167 2215.5,780.833 2215.5,1171.5C 2164.9,1167.39 2114.23,1164.39 2063.5,1162.5C 2063.79,1164.29 2063.45,1165.95 2062.5,1167.5C 2061.61,1166.68 2061.28,1165.68 2061.5,1164.5C 2059.08,1164.42 2057.24,1165.42 2056,1167.5C 2054.27,1166.35 2052.6,1166.35 2051,1167.5C 2047.95,1165.88 2048.45,1165.21 2052.5,1165.5C 2049.58,1160.17 2051.25,1156.67 2057.5,1155C 2056.66,1153.99 2056.33,1152.82 2056.5,1151.5C 2082.81,1114.87 2101.64,1074.54 2113,1030.5C 2120.87,999.601 2126.04,968.268 2128.5,936.5C 2129.12,936.389 2129.62,936.056 2130,935.5C 2130.83,908.494 2130.67,881.494 2129.5,854.5C 2128.83,852.369 2128.16,850.369 2127.5,848.5C 2127.5,848.167 2127.5,847.833 2127.5,847.5C 2126.13,827.192 2123.46,807.192 2119.5,787.5C 2107.84,716.221 2081.34,651.221 2040,592.5C 2035.09,587.017 2030.43,581.351 2026,575.5C 2028.46,565.972 2030.8,556.305 2033,546.5C 2033.74,542.187 2034.24,537.853 2034.5,533.5C 2036.03,522.208 2036.7,510.708 2036.5,499C 2036.95,485.238 2035.95,471.738 2033.5,458.5C 2027.15,415.778 2014.32,375.111 1995,336.5C 1944.92,235.424 1871.09,156.591 1773.5,100C 1735.56,79.2422 1695.23,65.9089 1652.5,60C 1609.6,54.2285 1570.27,63.2285 1534.5,87C 1496.16,117.831 1475.33,157.997 1472,207.5C 1469.46,251.173 1474.79,293.84 1488,335.5C 1525.02,441.418 1587.86,528.585 1676.5,597C 1722.78,632.636 1774.44,657.302 1831.5,671C 1835.51,671.501 1839.51,672.001 1843.5,672.5C 1847.29,673.617 1851.29,674.283 1855.5,674.5C 1868.81,675.259 1882.14,675.759 1895.5,676C 1923.52,691.676 1948.69,711.176 1971,734.5C 2020.02,785.186 2058.02,843.186 2085,908.5C 2090.05,921.796 2093.55,935.463 2095.5,949.5C 2096.23,961.152 2096.57,972.819 2096.5,984.5C 2093.79,1014.11 2079.79,1036.61 2054.5,1052C 2034.77,1062.68 2013.77,1069.18 1991.5,1071.5C 1986.66,1071.91 1981.99,1072.58 1977.5,1073.5C 1947.35,1075.29 1917.35,1073.96 1887.5,1069.5C 1887.5,1068.5 1887.5,1067.5 1887.5,1066.5C 1890.19,1066.66 1892.85,1066.5 1895.5,1066C 1894.23,1064.95 1892.73,1064.45 1891,1064.5C 1879.26,1067.79 1867.93,1066.79 1857,1061.5C 1855.7,1061.96 1854.37,1062.29 1853,1062.5C 1845.19,1060.8 1837.36,1059.46 1829.5,1058.5C 1778.82,1047.58 1729.15,1033.08 1680.5,1015C 1585.14,978.986 1492.47,936.986 1402.5,889C 1307.55,837.54 1214.89,782.54 1124.5,724C 1051.33,673.852 977.335,624.852 902.5,577C 819.987,525.733 734.654,479.066 646.5,437C 582.175,407.002 515.841,382.335 447.5,363C 430.815,359.162 414.148,355.328 397.5,351.5C 396.275,349.551 396.942,348.218 399.5,347.5C 390.143,345.813 380.81,344.147 371.5,342.5C 368.211,343.382 364.877,344.048 361.5,344.5C 352.832,343.5 344.165,342.5 335.5,341.5C 343.201,340.003 350.701,340.669 358,343.5C 361.326,342.937 364.493,341.937 367.5,340.5C 365.159,339.288 362.993,339.622 361,341.5C 357.042,341.005 353.376,339.671 350,337.5C 326.941,340.228 303.774,341.061 280.5,340C 301.193,338.999 321.86,337.666 342.5,336C 321.835,335.94 301.168,336.273 280.5,337C 278.875,337.853 278.542,338.853 279.5,340C 276.69,340.782 274.023,341.616 271.5,342.5C 269.5,343.167 267.5,343.833 265.5,344.5C 205.299,347.59 155.466,371.59 116,416.5C 88.0797,453.719 72.413,495.719 69,542.5C 66.0837,583.923 69.0837,624.923 78,665.5C 86.6192,703.024 98.6192,739.357 114,774.5C 133.781,794.381 147.115,818.048 154,845.5C 156.154,854.113 157.987,862.78 159.5,871.5C 161.035,881.474 162.535,891.474 164,901.5C 165.851,923.32 167.684,944.987 169.5,966.5C 170.721,999.991 178.221,1031.99 192,1062.5C 200.555,1077.73 211.388,1091.23 224.5,1103C 272.716,1148.25 324.383,1188.91 379.5,1225C 418.278,1249.39 459.612,1268.39 503.5,1282C 522.044,1286.92 540.711,1290.42 559.5,1292.5C 573.321,1294.95 587.321,1295.12 601.5,1293C 602.624,1292.75 603.624,1292.25 604.5,1291.5C 604.376,1290.89 604.043,1290.56 603.5,1290.5C 552.17,1259.67 503.17,1225.5 456.5,1188C 395.146,1137.79 335.48,1085.45 277.5,1031C 267.026,1016.95 262.526,1001.11 264,983.5C 264.26,979.75 264.927,976.084 266,972.5C 300.462,908.577 334.128,844.243 367,779.5C 374.919,769.737 384.419,767.903 395.5,774C 532.399,896.892 668.732,1020.56 804.5,1145C 808.61,1149.11 813.277,1152.44 818.5,1155C 821.063,1156.08 823.729,1156.58 826.5,1156.5C 826.401,1136.77 821.901,1118.1 813,1100.5C 797.764,1070.29 779.764,1041.96 759,1015.5C 741.708,994.539 724.041,973.872 706,953.5C 672.887,919.054 639.054,885.221 604.5,852C 539.859,793.362 475.192,734.695 410.5,676C 402.327,668.748 393.327,662.748 383.5,658C 378.292,656.198 372.959,655.031 367.5,654.5C 363.347,653.834 359.013,653.501 354.5,653.5C 348.251,653.294 342.251,653.96 336.5,655.5C 316.498,660.78 297.164,667.946 278.5,677C 261.964,683.926 244.797,688.093 227,689.5C 212.152,689.33 198.319,685.496 185.5,678C 164.877,664.385 146.377,648.218 130,629.5C 118.612,616.396 110.612,601.396 106,584.5C 101.685,557.302 110.519,535.469 132.5,519C 160.916,499.715 192.25,487.715 226.5,483C 237.73,480.753 249.063,479.586 260.5,479.5C 288.136,477.822 315.803,477.155 343.5,477.5C 358.185,477.787 372.852,478.454 387.5,479.5C 400.631,481.707 413.964,483.373 427.5,484.5C 610.577,513.802 782.243,574.969 942.5,668C 1005.39,705.248 1066.39,745.248 1125.5,788C 1158.83,813.333 1192.17,838.667 1225.5,864C 1287.65,914.24 1349.98,964.24 1412.5,1014C 1461.1,1051.96 1511.1,1087.96 1562.5,1122C 1587.9,1137.7 1613.57,1152.86 1639.5,1167.5C 1637.94,1167.48 1636.44,1167.15 1635,1166.5C 1633.17,1167.01 1633.01,1167.84 1634.5,1169C 1633.55,1169.48 1632.55,1169.65 1631.5,1169.5C 1631.5,1168.17 1631.5,1166.83 1631.5,1165.5C 1629.17,1165.25 1627.17,1165.91 1625.5,1167.5C 1624.3,1167.15 1624.3,1166.65 1625.5,1166C 1624.5,1165.5 1623.5,1165 1622.5,1164.5C 1619.95,1165.8 1617.28,1166.8 1614.5,1167.5C 1610.07,1165.48 1605.4,1164.98 1600.5,1166C 1601.5,1166.33 1602.5,1166.67 1603.5,1167C 1570.16,1168.72 1536.83,1170.56 1503.5,1172.5C 1458.11,1177.39 1412.77,1182.73 1367.5,1188.5C 1346.48,1194.13 1325.14,1197.79 1303.5,1199.5C 1303.5,1200.83 1303.5,1202.17 1303.5,1203.5C 1292.65,1203.55 1281.99,1204.88 1271.5,1207.5C 1271.5,1208.83 1271.5,1210.17 1271.5,1211.5C 1260.22,1212.23 1249.88,1215.56 1240.5,1221.5C 1237.46,1218.63 1235.79,1219.29 1235.5,1223.5C 1230.17,1226.17 1224.83,1228.83 1219.5,1231.5C 1219.83,1234.5 1218.5,1235.83 1215.5,1235.5C 1215.5,1236.83 1215.5,1238.17 1215.5,1239.5C 1214.17,1239.5 1212.83,1239.5 1211.5,1239.5C 1210.15,1244.94 1210.82,1249.94 1213.5,1254.5C 1216.16,1256.41 1218.5,1258.58 1220.5,1261C 1222.65,1262.41 1224.99,1263.25 1227.5,1263.5C 1227.35,1264.55 1227.52,1265.55 1228,1266.5C 1230.07,1267.26 1232.24,1267.76 1234.5,1268C 1235.34,1269.01 1235.67,1270.18 1235.5,1271.5C 1238.17,1271.5 1240.83,1271.5 1243.5,1271.5C 1243.36,1273.12 1244.03,1274.29 1245.5,1275C 1248.82,1275.5 1252.15,1275.67 1255.5,1275.5C 1255.5,1276.83 1255.5,1278.17 1255.5,1279.5C 1279.61,1284.53 1303.61,1290.19 1327.5,1296.5C 1343.73,1297.86 1359.73,1300.53 1375.5,1304.5C 1404.88,1307.84 1434.22,1311.5 1463.5,1315.5C 1628.55,1330.19 1793.88,1336.02 1959.5,1333C 2044.92,1330.83 2130.26,1327 2215.5,1321.5C 2215.5,1344.83 2215.5,1368.17 2215.5,1391.5C 1476.83,1391.5 738.167,1391.5 -0.5,1391.5C -0.5,927.5 -0.5,463.5 -0.5,-0.5 Z"/></g>
<g><path style="opacity:1" fill="#f4eee8" d="M 397.5,351.5 C 385.18,349.724 372.847,348.058 360.5,346.5C 351.73,344.685 342.73,343.519 333.5,343C 312.836,342.5 292.169,342.333 271.5,342.5C 274.023,341.616 276.69,340.782 279.5,340C 278.542,338.853 278.875,337.853 280.5,337C 301.168,336.273 321.835,335.94 342.5,336C 321.86,337.666 301.193,338.999 280.5,340C 303.774,341.061 326.941,340.228 350,337.5C 353.376,339.671 357.042,341.005 361,341.5C 362.993,339.622 365.159,339.288 367.5,340.5C 364.493,341.937 361.326,342.937 358,343.5C 350.701,340.669 343.201,340.003 335.5,341.5C 344.165,342.5 352.832,343.5 361.5,344.5C 364.877,344.048 368.211,343.382 371.5,342.5C 380.81,344.147 390.143,345.813 399.5,347.5C 396.942,348.218 396.275,349.551 397.5,351.5 Z"/></g>
<g><path style="opacity:1" fill="#a2744d" d="M 271.5,342.5 C 292.169,342.333 312.836,342.5 333.5,343C 342.73,343.519 351.73,344.685 360.5,346.5C 350.732,346.538 341.065,345.871 331.5,344.5C 326.982,344.565 322.649,345.231 318.5,346.5C 312.154,344.642 305.654,343.642 299,343.5C 287.842,344.151 276.675,344.484 265.5,344.5C 267.5,343.833 269.5,343.167 271.5,342.5 Z"/></g>
<g><path style="opacity:1" fill="#a36d3e" d="M 2033.5,458.5 C 2033.97,469.176 2034.64,479.842 2035.5,490.5C 2035.15,496.951 2034.15,503.284 2032.5,509.5C 2034.37,517.359 2035.03,525.359 2034.5,533.5C 2034.24,537.853 2033.74,542.187 2033,546.5C 2030.8,556.305 2028.46,565.972 2026,575.5C 2030.43,581.351 2035.09,587.017 2040,592.5C 2081.34,651.221 2107.84,716.221 2119.5,787.5C 2119.92,796.913 2120.92,806.247 2122.5,815.5C 2122.07,818.54 2122.07,821.373 2122.5,824C 2120.56,826.153 2120.06,828.653 2121,831.5C 2121.54,829.369 2122.38,827.369 2123.5,825.5C 2124.8,832.527 2124.8,839.527 2123.5,846.5C 2124.69,847.429 2126.02,847.762 2127.5,847.5C 2127.5,847.833 2127.5,848.167 2127.5,848.5C 2129.82,877.801 2130.15,907.135 2128.5,936.5C 2126.04,968.268 2120.87,999.601 2113,1030.5C 2101.64,1074.54 2082.81,1114.87 2056.5,1151.5C 2049.86,1159.14 2043.2,1166.81 2036.5,1174.5C 2033.17,1177.17 2030.17,1180.17 2027.5,1183.5C 2023.18,1186.49 2019.18,1189.82 2015.5,1193.5C 2012.53,1195.15 2009.86,1197.15 2007.5,1199.5C 2002.87,1202.14 1998.53,1205.14 1994.5,1208.5C 1992.85,1208.66 1991.51,1209.33 1990.5,1210.5C 1986.21,1212.48 1982.21,1214.81 1978.5,1217.5C 1974.41,1218.38 1970.74,1220.05 1967.5,1222.5C 1961.87,1223.93 1956.54,1225.93 1951.5,1228.5C 1947.93,1228.89 1944.59,1229.89 1941.5,1231.5C 1934.07,1233.19 1926.74,1234.86 1919.5,1236.5C 1913.93,1236.38 1908.6,1237.04 1903.5,1238.5C 1887.7,1240.16 1871.7,1240.83 1855.5,1240.5C 1850.12,1239.76 1844.79,1238.76 1839.5,1237.5C 1836.69,1236.68 1833.69,1236.18 1830.5,1236C 1830.17,1235.67 1829.83,1235.33 1829.5,1235C 1831.58,1234.81 1833.58,1234.31 1835.5,1233.5C 1834,1233.17 1832.5,1232.83 1831,1232.5C 1827.29,1232.96 1823.63,1233.62 1820,1234.5C 1815.95,1233.04 1811.78,1232.38 1807.5,1232.5C 1805.39,1231.53 1803.06,1231.2 1800.5,1231.5C 1797.57,1230.54 1794.57,1229.87 1791.5,1229.5C 1785.31,1227.7 1778.98,1226.04 1772.5,1224.5C 1772.17,1224.5 1771.83,1224.5 1771.5,1224.5C 1767.8,1222.57 1763.8,1221.23 1759.5,1220.5C 1755.55,1218.08 1751.22,1216.42 1746.5,1215.5C 1745.5,1215.5 1744.5,1215.5 1743.5,1215.5C 1742.1,1213.62 1740.1,1212.62 1737.5,1212.5C 1732.74,1210.13 1727.74,1208.13 1722.5,1206.5C 1716.14,1203.26 1709.47,1200.6 1702.5,1198.5C 1691.69,1192.93 1680.69,1187.59 1669.5,1182.5C 1662.17,1178.83 1654.83,1175.17 1647.5,1171.5C 1644.81,1170.15 1642.14,1168.82 1639.5,1167.5C 1613.57,1152.86 1587.9,1137.7 1562.5,1122C 1511.1,1087.96 1461.1,1051.96 1412.5,1014C 1349.98,964.24 1287.65,914.24 1225.5,864C 1192.17,838.667 1158.83,813.333 1125.5,788C 1066.39,745.248 1005.39,705.248 942.5,668C 782.243,574.969 610.577,513.802 427.5,484.5C 414.536,481.285 401.202,479.619 387.5,479.5C 372.852,478.454 358.185,477.787 343.5,477.5C 324.338,476.338 305.004,476.171 285.5,477C 276.956,477.216 268.623,478.049 260.5,479.5C 249.063,479.586 237.73,480.753 226.5,483C 192.25,487.715 160.916,499.715 132.5,519C 110.519,535.469 101.685,557.302 106,584.5C 110.612,601.396 118.612,616.396 130,629.5C 146.377,648.218 164.877,664.385 185.5,678C 198.319,685.496 212.152,689.33 227,689.5C 244.797,688.093 261.964,683.926 278.5,677C 297.164,667.946 316.498,660.78 336.5,655.5C 346.815,654.733 357.148,654.399 367.5,654.5C 372.959,655.031 378.292,656.198 383.5,658C 393.327,662.748 402.327,668.748 410.5,676C 475.192,734.695 539.859,793.362 604.5,852C 639.054,885.221 672.887,919.054 706,953.5C 724.041,973.872 741.708,994.539 759,1015.5C 779.764,1041.96 797.764,1070.29 813,1100.5C 821.901,1118.1 826.401,1136.77 826.5,1156.5C 823.729,1156.58 821.063,1156.08 818.5,1155C 813.277,1152.44 808.61,1149.11 804.5,1145C 668.732,1020.56 532.399,896.892 395.5,774C 384.419,767.903 374.919,769.737 367,779.5C 334.128,844.243 300.462,908.577 266,972.5C 264.927,976.084 264.26,979.75 264,983.5C 262.526,1001.11 267.026,1016.95 277.5,1031C 335.48,1085.45 395.146,1137.79 456.5,1188C 503.17,1225.5 552.17,1259.67 603.5,1290.5C 601.708,1291.31 599.708,1291.81 597.5,1292C 584.838,1292.5 572.171,1292.67 559.5,1292.5C 540.711,1290.42 522.044,1286.92 503.5,1282C 459.612,1268.39 418.278,1249.39 379.5,1225C 324.383,1188.91 272.716,1148.25 224.5,1103C 211.388,1091.23 200.555,1077.73 192,1062.5C 178.221,1031.99 170.721,999.991 169.5,966.5C 167.835,950.125 168.169,933.791 170.5,917.5C 170.167,915.5 169.833,913.5 169.5,911.5C 168.671,916.802 168.171,922.136 168,927.5C 166.316,917.831 166.483,908.165 168.5,898.5C 168.167,897.5 167.833,896.5 167.5,895.5C 166.813,897.274 165.98,898.941 165,900.5C 163.415,891.569 162.415,882.569 162,873.5C 161.292,872.619 160.458,871.953 159.5,871.5C 157.987,862.78 156.154,854.113 154,845.5C 147.115,818.048 133.781,794.381 114,774.5C 98.6192,739.357 86.6192,703.024 78,665.5C 69.0837,624.923 66.0837,583.923 69,542.5C 72.413,495.719 88.0797,453.719 116,416.5C 155.466,371.59 205.299,347.59 265.5,344.5C 276.675,344.484 287.842,344.151 299,343.5C 305.654,343.642 312.154,344.642 318.5,346.5C 322.649,345.231 326.982,344.565 331.5,344.5C 341.065,345.871 350.732,346.538 360.5,346.5C 372.847,348.058 385.18,349.724 397.5,351.5C 414.148,355.328 430.815,359.162 447.5,363C 515.841,382.335 582.175,407.002 646.5,437C 734.654,479.066 819.987,525.733 902.5,577C 977.335,624.852 1051.33,673.852 1124.5,724C 1214.89,782.54 1307.55,837.54 1402.5,889C 1492.47,936.986 1585.14,978.986 1680.5,1015C 1729.15,1033.08 1778.82,1047.58 1829.5,1058.5C 1848.46,1063.36 1867.8,1067.02 1887.5,1069.5C 1917.35,1073.96 1947.35,1075.29 1977.5,1073.5C 1981.18,1073.67 1984.85,1073.5 1988.5,1073C 1989.74,1072.77 1990.74,1072.27 1991.5,1071.5C 2013.77,1069.18 2034.77,1062.68 2054.5,1052C 2079.79,1036.61 2093.79,1014.11 2096.5,984.5C 2097.17,979.845 2097.5,975.012 2097.5,970C 2097.7,962.93 2097.03,956.097 2095.5,949.5C 2093.55,935.463 2090.05,921.796 2085,908.5C 2058.02,843.186 2020.02,785.186 1971,734.5C 1948.69,711.176 1923.52,691.676 1895.5,676C 1882.14,675.759 1868.81,675.259 1855.5,674.5C 1855.08,673.778 1854.42,673.278 1853.5,673C 1850.18,672.502 1846.85,672.335 1843.5,672.5C 1839.51,672.001 1835.51,671.501 1831.5,671C 1774.44,657.302 1722.78,632.636 1676.5,597C 1587.86,528.585 1525.02,441.418 1488,335.5C 1474.79,293.84 1469.46,251.173 1472,207.5C 1475.33,157.997 1496.16,117.831 1534.5,87C 1570.27,63.2285 1609.6,54.2285 1652.5,60C 1695.23,65.9089 1735.56,79.2422 1773.5,100C 1871.09,156.591 1944.92,235.424 1995,336.5C 2014.32,375.111 2027.15,415.778 2033.5,458.5 Z"/></g>
<g><path style="opacity:1" fill="#f2dfcd" d="M 343.5,477.5 C 315.803,477.155 288.136,477.822 260.5,479.5C 268.623,478.049 276.956,477.216 285.5,477C 305.004,476.171 324.338,476.338 343.5,477.5 Z"/></g>
<g><path style="opacity:1" fill="#a37c5a" d="M 387.5,479.5 C 401.202,479.619 414.536,481.285 427.5,484.5C 413.964,483.373 400.631,481.707 387.5,479.5 Z"/></g>
<g><path style="opacity:1" fill="#a07249" d="M 2033.5,458.5 C 2035.95,471.738 2036.95,485.238 2036.5,499C 2036.7,510.708 2036.03,522.208 2034.5,533.5C 2035.03,525.359 2034.37,517.359 2032.5,509.5C 2034.15,503.284 2035.15,496.951 2035.5,490.5C 2034.64,479.842 2033.97,469.176 2033.5,458.5 Z"/></g>
<g><path style="opacity:1" fill="#a07856" d="M 367.5,654.5 C 357.148,654.399 346.815,654.733 336.5,655.5C 342.251,653.96 348.251,653.294 354.5,653.5C 359.013,653.501 363.347,653.834 367.5,654.5 Z"/></g>
<g><path style="opacity:1" fill="#ad896a" d="M 1843.5,672.5 C 1846.85,672.335 1850.18,672.502 1853.5,673C 1854.42,673.278 1855.08,673.778 1855.5,674.5C 1851.29,674.283 1847.29,673.617 1843.5,672.5 Z"/></g>
<g><path style="opacity:1" fill="#a1734a" d="M 2119.5,787.5 C 2123.46,807.192 2126.13,827.192 2127.5,847.5C 2126.02,847.762 2124.69,847.429 2123.5,846.5C 2124.8,839.527 2124.8,832.527 2123.5,825.5C 2122.38,827.369 2121.54,829.369 2121,831.5C 2120.06,828.653 2120.56,826.153 2122.5,824C 2122.07,821.373 2122.07,818.54 2122.5,815.5C 2120.92,806.247 2119.92,796.913 2119.5,787.5 Z"/></g>
<g><path style="opacity:1" fill="#a36d3e" d="M 388.5,830.5 C 401.467,828.493 413.134,831.326 423.5,839C 517.4,935.231 610.233,1032.4 702,1130.5C 723.01,1153.85 743.677,1177.51 764,1201.5C 768.246,1206.99 772.246,1212.66 776,1218.5C 777.252,1221.01 777.752,1223.68 777.5,1226.5C 775.801,1226.66 774.134,1226.49 772.5,1226C 765.512,1222.84 758.846,1219.17 752.5,1215C 725.631,1196.06 699.297,1176.4 673.5,1156C 569.102,1071.94 465.602,986.77 363,900.5C 348.371,874.383 353.204,852.549 377.5,835C 381.053,832.879 384.72,831.379 388.5,830.5 Z"/></g>
<g><path style="opacity:1" fill="#f9efe6" d="M 2127.5,848.5 C 2128.16,850.369 2128.83,852.369 2129.5,854.5C 2130.67,881.494 2130.83,908.494 2130,935.5C 2129.62,936.056 2129.12,936.389 2128.5,936.5C 2130.15,907.135 2129.82,877.801 2127.5,848.5 Z"/></g>
<g><path style="opacity:1" fill="#a27249" d="M 159.5,871.5 C 160.458,871.953 161.292,872.619 162,873.5C 162.415,882.569 163.415,891.569 165,900.5C 165.98,898.941 166.813,897.274 167.5,895.5C 167.833,896.5 168.167,897.5 168.5,898.5C 166.483,908.165 166.316,917.831 168,927.5C 168.171,922.136 168.671,916.802 169.5,911.5C 169.833,913.5 170.167,915.5 170.5,917.5C 168.169,933.791 167.835,950.125 169.5,966.5C 167.684,944.987 165.851,923.32 164,901.5C 162.535,891.474 161.035,881.474 159.5,871.5 Z"/></g>
<g><path style="opacity:1" fill="#a36d3e" d="M 333.5,938.5 C 346.378,937.468 358.045,940.635 368.5,948C 456.719,1034.22 544.219,1121.05 631,1208.5C 650.78,1228.61 669.447,1249.61 687,1271.5C 688.741,1274.31 689.908,1277.31 690.5,1280.5C 687.393,1280.65 684.393,1280.15 681.5,1279C 654.316,1263.25 627.983,1246.25 602.5,1228C 504.219,1156.72 406.219,1085.05 308.5,1013C 293.829,995.1 292.663,976.267 305,956.5C 312.896,947.734 322.396,941.734 333.5,938.5 Z"/></g>
<g><path style="opacity:1" fill="#f4e4d5" d="M 2095.5,949.5 C 2097.03,956.097 2097.7,962.93 2097.5,970C 2097.5,975.012 2097.17,979.845 2096.5,984.5C 2096.57,972.819 2096.23,961.152 2095.5,949.5 Z"/></g>
<g><path style="opacity:1" fill="#f3ebe4" d="M 1829.5,1058.5 C 1837.36,1059.46 1845.19,1060.8 1853,1062.5C 1854.37,1062.29 1855.7,1061.96 1857,1061.5C 1867.93,1066.79 1879.26,1067.79 1891,1064.5C 1892.73,1064.45 1894.23,1064.95 1895.5,1066C 1892.85,1066.5 1890.19,1066.66 1887.5,1066.5C 1887.5,1067.5 1887.5,1068.5 1887.5,1069.5C 1867.8,1067.02 1848.46,1063.36 1829.5,1058.5 Z"/></g>
<g><path style="opacity:1" fill="#b5987c" d="M 1991.5,1071.5 C 1990.74,1072.27 1989.74,1072.77 1988.5,1073C 1984.85,1073.5 1981.18,1073.67 1977.5,1073.5C 1981.99,1072.58 1986.66,1071.91 1991.5,1071.5 Z"/></g>
<g><path style="opacity:1" fill="#f0f0f0" d="M 2056.5,1151.5 C 2056.33,1152.82 2056.66,1153.99 2057.5,1155C 2051.25,1156.67 2049.58,1160.17 2052.5,1165.5C 2048.45,1165.21 2047.95,1165.88 2051,1167.5C 2052.6,1166.35 2054.27,1166.35 2056,1167.5C 2057.24,1165.42 2059.08,1164.42 2061.5,1164.5C 2061.28,1165.68 2061.61,1166.68 2062.5,1167.5C 2063.45,1165.95 2063.79,1164.29 2063.5,1162.5C 2114.23,1164.39 2164.9,1167.39 2215.5,1171.5C 2215.5,1178.17 2215.5,1184.83 2215.5,1191.5C 2199.4,1190.99 2183.4,1189.49 2167.5,1187C 2151.86,1186.64 2136.36,1185.48 2121,1183.5C 2117.8,1183.66 2114.63,1183.99 2111.5,1184.5C 2111.5,1183.5 2111.5,1182.5 2111.5,1181.5C 2096.83,1181.67 2082.16,1181.67 2067.5,1181.5C 2060.59,1179.99 2053.59,1179.16 2046.5,1179C 2047.73,1177.82 2047.73,1176.65 2046.5,1175.5C 2044.5,1177.5 2042.5,1179.5 2040.5,1181.5C 2039.41,1180.61 2039.41,1179.61 2040.5,1178.5C 2039.39,1176.8 2038.06,1175.47 2036.5,1174.5C 2043.2,1166.81 2049.86,1159.14 2056.5,1151.5 Z"/></g>
<g><path style="opacity:1" fill="#f0f0f0" d="M 1639.5,1167.5 C 1642.14,1168.82 1644.81,1170.15 1647.5,1171.5C 1647.5,1172.5 1647.5,1173.5 1647.5,1174.5C 1638.13,1173.66 1637.47,1175 1645.5,1178.5C 1646.65,1178.18 1647.48,1177.52 1648,1176.5C 1651.93,1178.98 1651.43,1181.31 1646.5,1183.5C 1644.14,1182.32 1641.64,1181.66 1639,1181.5C 1614.02,1184.07 1588.86,1186.4 1563.5,1188.5C 1561.62,1188.28 1559.95,1187.62 1558.5,1186.5C 1556.7,1188.7 1554.37,1189.87 1551.5,1190C 1543.73,1190.13 1536.07,1190.96 1528.5,1192.5C 1527.83,1192.17 1527.17,1191.83 1526.5,1191.5C 1521.85,1192.51 1517.18,1193.51 1512.5,1194.5C 1511.27,1193.35 1511.27,1192.18 1512.5,1191C 1510.83,1190.33 1509.17,1190.33 1507.5,1191C 1509.96,1192.15 1509.96,1193.49 1507.5,1195C 1503.78,1195.24 1500.11,1195.74 1496.5,1196.5C 1495.71,1196.07 1494.87,1195.74 1494,1195.5C 1481.41,1197.22 1468.91,1199.55 1456.5,1202.5C 1455.81,1201.97 1455.31,1201.31 1455,1200.5C 1447.21,1202.54 1439.38,1204.54 1431.5,1206.5C 1426.88,1207.49 1422.21,1207.83 1417.5,1207.5C 1417.69,1209.1 1417.19,1210.44 1416,1211.5C 1405.45,1210.47 1395.45,1212.47 1386,1217.5C 1383.92,1216.06 1383.09,1216.72 1383.5,1219.5C 1378.07,1219.86 1372.73,1220.86 1367.5,1222.5C 1360.36,1224.69 1353.69,1227.69 1347.5,1231.5C 1347.83,1234.5 1346.5,1235.83 1343.5,1235.5C 1343.5,1236.83 1343.5,1238.17 1343.5,1239.5C 1341.83,1239.5 1340.17,1239.5 1338.5,1239.5C 1338.74,1242.58 1338.41,1245.58 1337.5,1248.5C 1338.83,1250.5 1340.17,1252.5 1341.5,1254.5C 1344.16,1256.41 1346.5,1258.58 1348.5,1261C 1351.91,1262.93 1355.57,1263.77 1359.5,1263.5C 1359.5,1264.5 1359.5,1265.5 1359.5,1266.5C 1365.04,1267.9 1370.37,1269.9 1375.5,1272.5C 1380.73,1274.14 1386.07,1275.14 1391.5,1275.5C 1391.09,1278.28 1391.92,1278.94 1394,1277.5C 1395.89,1278.2 1397.73,1279.03 1399.5,1280C 1410.27,1281.15 1420.77,1283.32 1431,1286.5C 1431.33,1285.83 1431.67,1285.17 1432,1284.5C 1434.61,1285.61 1437.11,1286.94 1439.5,1288.5C 1457.47,1290.71 1475.47,1293.05 1493.5,1295.5C 1494,1299.34 1495,1299.34 1496.5,1295.5C 1497.31,1295.81 1497.97,1296.31 1498.5,1297C 1516.1,1298.43 1533.76,1300.43 1551.5,1303C 1570.24,1303.08 1588.74,1304.92 1607,1308.5C 1612.67,1308.17 1618.33,1307.83 1624,1307.5C 1626.45,1308.2 1628.79,1309.2 1631,1310.5C 1636.27,1308.98 1641.44,1309.31 1646.5,1311.5C 1647.95,1310.38 1649.62,1309.72 1651.5,1309.5C 1670.09,1311.5 1688.75,1312.83 1707.5,1313.5C 1715.53,1312.5 1723.53,1312.83 1731.5,1314.5C 1737.54,1313.08 1743.54,1313.25 1749.5,1315C 1766.17,1315.48 1782.83,1315.98 1799.5,1316.5C 1846.17,1316.46 1892.84,1316.46 1939.5,1316.5C 1960.88,1316.33 1982.22,1315.33 2003.5,1313.5C 2011.53,1314.5 2019.53,1314.17 2027.5,1312.5C 2030.17,1312.83 2032.83,1313.17 2035.5,1313.5C 2051.16,1312.58 2066.83,1311.75 2082.5,1311C 2083.87,1310.6 2085.21,1310.1 2086.5,1309.5C 2088.29,1310.66 2090.29,1311.33 2092.5,1311.5C 2100.98,1310.19 2109.48,1308.86 2118,1307.5C 2124.04,1307.9 2130.04,1308.24 2136,1308.5C 2137.1,1307.03 2138.6,1306.2 2140.5,1306C 2144.71,1305.26 2148.88,1305.43 2153,1306.5C 2173.81,1304.38 2194.64,1302.38 2215.5,1300.5C 2215.5,1307.5 2215.5,1314.5 2215.5,1321.5C 2130.26,1327 2044.92,1330.83 1959.5,1333C 1793.88,1336.02 1628.55,1330.19 1463.5,1315.5C 1434.22,1311.5 1404.88,1307.84 1375.5,1304.5C 1359.73,1300.53 1343.73,1297.86 1327.5,1296.5C 1303.61,1290.19 1279.61,1284.53 1255.5,1279.5C 1255.5,1278.17 1255.5,1276.83 1255.5,1275.5C 1252.15,1275.67 1248.82,1275.5 1245.5,1275C 1244.03,1274.29 1243.36,1273.12 1243.5,1271.5C 1240.83,1271.5 1238.17,1271.5 1235.5,1271.5C 1235.67,1270.18 1235.34,1269.01 1234.5,1268C 1232.24,1267.76 1230.07,1267.26 1228,1266.5C 1227.52,1265.55 1227.35,1264.55 1227.5,1263.5C 1224.99,1263.25 1222.65,1262.41 1220.5,1261C 1218.5,1258.58 1216.16,1256.41 1213.5,1254.5C 1210.82,1249.94 1210.15,1244.94 1211.5,1239.5C 1212.83,1239.5 1214.17,1239.5 1215.5,1239.5C 1215.5,1238.17 1215.5,1236.83 1215.5,1235.5C 1218.5,1235.83 1219.83,1234.5 1219.5,1231.5C 1224.83,1228.83 1230.17,1226.17 1235.5,1223.5C 1235.79,1219.29 1237.46,1218.63 1240.5,1221.5C 1249.88,1215.56 1260.22,1212.23 1271.5,1211.5C 1271.5,1210.17 1271.5,1208.83 1271.5,1207.5C 1281.99,1204.88 1292.65,1203.55 1303.5,1203.5C 1303.5,1202.17 1303.5,1200.83 1303.5,1199.5C 1325.14,1197.79 1346.48,1194.13 1367.5,1188.5C 1412.77,1182.73 1458.11,1177.39 1503.5,1172.5C 1536.83,1170.56 1570.16,1168.72 1603.5,1167C 1602.5,1166.67 1601.5,1166.33 1600.5,1166C 1605.4,1164.98 1610.07,1165.48 1614.5,1167.5C 1617.28,1166.8 1619.95,1165.8 1622.5,1164.5C 1623.5,1165 1624.5,1165.5 1625.5,1166C 1624.3,1166.65 1624.3,1167.15 1625.5,1167.5C 1627.17,1165.91 1629.17,1165.25 1631.5,1165.5C 1631.5,1166.83 1631.5,1168.17 1631.5,1169.5C 1632.55,1169.65 1633.55,1169.48 1634.5,1169C 1633.01,1167.84 1633.17,1167.01 1635,1166.5C 1636.44,1167.15 1637.94,1167.48 1639.5,1167.5 Z"/></g>
<g><path style="opacity:1" fill="#eaeaea" d="M 2036.5,1174.5 C 2038.06,1175.47 2039.39,1176.8 2040.5,1178.5C 2039.41,1179.61 2039.41,1180.61 2040.5,1181.5C 2042.5,1179.5 2044.5,1177.5 2046.5,1175.5C 2047.73,1176.65 2047.73,1177.82 2046.5,1179C 2053.59,1179.16 2060.59,1179.99 2067.5,1181.5C 2082.16,1181.67 2096.83,1181.67 2111.5,1181.5C 2111.5,1182.5 2111.5,1183.5 2111.5,1184.5C 2114.63,1183.99 2117.8,1183.66 2121,1183.5C 2136.36,1185.48 2151.86,1186.64 2167.5,1187C 2183.4,1189.49 2199.4,1190.99 2215.5,1191.5C 2215.5,1195.5 2215.5,1199.5 2215.5,1203.5C 2199.53,1201.77 2183.7,1199.43 2168,1196.5C 2160.63,1197.57 2153.13,1197.07 2145.5,1195C 2109.9,1191.71 2074.23,1189.38 2038.5,1188C 2036.24,1187.76 2034.07,1187.26 2032,1186.5C 2031.67,1187.17 2031.33,1187.83 2031,1188.5C 2030.33,1186.41 2029.16,1184.74 2027.5,1183.5C 2030.17,1180.17 2033.17,1177.17 2036.5,1174.5 Z"/></g>
<g><path style="opacity:1" fill="#eaeaea" d="M 1647.5,1171.5 C 1654.83,1175.17 1662.17,1178.83 1669.5,1182.5C 1669.41,1183.5 1669.75,1184.33 1670.5,1185C 1673.19,1186.37 1675.85,1187.7 1678.5,1189C 1675.11,1191.27 1671.78,1191.43 1668.5,1189.5C 1666.2,1190.68 1663.86,1190.68 1661.5,1189.5C 1659.54,1189.87 1657.71,1190.54 1656,1191.5C 1654.09,1190.87 1652.09,1190.54 1650,1190.5C 1630.38,1193.06 1610.88,1194.56 1591.5,1195C 1571.9,1197.79 1551.9,1200.13 1531.5,1202C 1522.43,1203.62 1513.43,1205.46 1504.5,1207.5C 1503.83,1207.17 1503.17,1206.83 1502.5,1206.5C 1496.24,1208.82 1489.91,1209.99 1483.5,1210C 1481.97,1212.74 1480.47,1212.9 1479,1210.5C 1476.46,1212.88 1473.63,1213.54 1470.5,1212.5C 1463.04,1215.08 1455.71,1216.91 1448.5,1218C 1440.86,1220.6 1433.19,1223.1 1425.5,1225.5C 1418.7,1229.42 1411.7,1232.92 1404.5,1236C 1403.79,1238.59 1402.46,1240.76 1400.5,1242.5C 1399.52,1245.43 1399.18,1248.43 1399.5,1251.5C 1402.5,1251.17 1403.83,1252.5 1403.5,1255.5C 1404.98,1255.24 1406.31,1255.57 1407.5,1256.5C 1410.87,1259.04 1414.37,1261.38 1418,1263.5C 1419.84,1262.88 1421.67,1262.71 1423.5,1263C 1422.03,1263.71 1421.36,1264.88 1421.5,1266.5C 1429.78,1267.99 1437.78,1270.32 1445.5,1273.5C 1446.44,1273.39 1447.28,1273.06 1448,1272.5C 1452.86,1273.33 1457.36,1275 1461.5,1277.5C 1464.87,1276.57 1467.7,1277.57 1470,1280.5C 1471.14,1280.09 1472.31,1279.76 1473.5,1279.5C 1486.03,1281.43 1498.36,1284.1 1510.5,1287.5C 1511.17,1287.17 1511.83,1286.83 1512.5,1286.5C 1527.68,1288.65 1542.85,1290.98 1558,1293.5C 1561.45,1293.55 1564.95,1293.55 1568.5,1293.5C 1571.54,1295.46 1574.7,1295.8 1578,1294.5C 1598.2,1296.68 1618.37,1299.01 1638.5,1301.5C 1640.11,1300.92 1641.77,1300.59 1643.5,1300.5C 1774.9,1309.55 1906.4,1310.88 2038,1304.5C 2040.71,1304.58 2043.37,1304.91 2046,1305.5C 2055.71,1303.73 2065.54,1302.4 2075.5,1301.5C 2077.37,1301.63 2079.21,1301.96 2081,1302.5C 2101.58,1301.11 2122.08,1299.11 2142.5,1296.5C 2144.11,1297.08 2145.77,1297.41 2147.5,1297.5C 2154.26,1295.13 2161.09,1294.47 2168,1295.5C 2183.79,1291.76 2199.63,1289.09 2215.5,1287.5C 2215.5,1291.83 2215.5,1296.17 2215.5,1300.5C 2194.64,1302.38 2173.81,1304.38 2153,1306.5C 2148.88,1305.43 2144.71,1305.26 2140.5,1306C 2138.6,1306.2 2137.1,1307.03 2136,1308.5C 2130.04,1308.24 2124.04,1307.9 2118,1307.5C 2109.48,1308.86 2100.98,1310.19 2092.5,1311.5C 2090.29,1311.33 2088.29,1310.66 2086.5,1309.5C 2085.21,1310.1 2083.87,1310.6 2082.5,1311C 2066.83,1311.75 2051.16,1312.58 2035.5,1313.5C 2032.83,1313.17 2030.17,1312.83 2027.5,1312.5C 2019.53,1314.17 2011.53,1314.5 2003.5,1313.5C 1982.22,1315.33 1960.88,1316.33 1939.5,1316.5C 1892.84,1316.46 1846.17,1316.46 1799.5,1316.5C 1782.83,1315.98 1766.17,1315.48 1749.5,1315C 1743.54,1313.25 1737.54,1313.08 1731.5,1314.5C 1723.53,1312.83 1715.53,1312.5 1707.5,1313.5C 1688.75,1312.83 1670.09,1311.5 1651.5,1309.5C 1649.62,1309.72 1647.95,1310.38 1646.5,1311.5C 1641.44,1309.31 1636.27,1308.98 1631,1310.5C 1628.79,1309.2 1626.45,1308.2 1624,1307.5C 1618.33,1307.83 1612.67,1308.17 1607,1308.5C 1588.74,1304.92 1570.24,1303.08 1551.5,1303C 1533.76,1300.43 1516.1,1298.43 1498.5,1297C 1497.97,1296.31 1497.31,1295.81 1496.5,1295.5C 1495,1299.34 1494,1299.34 1493.5,1295.5C 1475.47,1293.05 1457.47,1290.71 1439.5,1288.5C 1437.11,1286.94 1434.61,1285.61 1432,1284.5C 1431.67,1285.17 1431.33,1285.83 1431,1286.5C 1420.77,1283.32 1410.27,1281.15 1399.5,1280C 1397.73,1279.03 1395.89,1278.2 1394,1277.5C 1391.92,1278.94 1391.09,1278.28 1391.5,1275.5C 1386.07,1275.14 1380.73,1274.14 1375.5,1272.5C 1370.37,1269.9 1365.04,1267.9 1359.5,1266.5C 1359.5,1265.5 1359.5,1264.5 1359.5,1263.5C 1355.57,1263.77 1351.91,1262.93 1348.5,1261C 1346.5,1258.58 1344.16,1256.41 1341.5,1254.5C 1340.17,1252.5 1338.83,1250.5 1337.5,1248.5C 1338.41,1245.58 1338.74,1242.58 1338.5,1239.5C 1340.17,1239.5 1341.83,1239.5 1343.5,1239.5C 1343.5,1238.17 1343.5,1236.83 1343.5,1235.5C 1346.5,1235.83 1347.83,1234.5 1347.5,1231.5C 1353.69,1227.69 1360.36,1224.69 1367.5,1222.5C 1372.73,1220.86 1378.07,1219.86 1383.5,1219.5C 1383.09,1216.72 1383.92,1216.06 1386,1217.5C 1395.45,1212.47 1405.45,1210.47 1416,1211.5C 1417.19,1210.44 1417.69,1209.1 1417.5,1207.5C 1422.21,1207.83 1426.88,1207.49 1431.5,1206.5C 1439.38,1204.54 1447.21,1202.54 1455,1200.5C 1455.31,1201.31 1455.81,1201.97 1456.5,1202.5C 1468.91,1199.55 1481.41,1197.22 1494,1195.5C 1494.87,1195.74 1495.71,1196.07 1496.5,1196.5C 1500.11,1195.74 1503.78,1195.24 1507.5,1195C 1509.96,1193.49 1509.96,1192.15 1507.5,1191C 1509.17,1190.33 1510.83,1190.33 1512.5,1191C 1511.27,1192.18 1511.27,1193.35 1512.5,1194.5C 1517.18,1193.51 1521.85,1192.51 1526.5,1191.5C 1527.17,1191.83 1527.83,1192.17 1528.5,1192.5C 1536.07,1190.96 1543.73,1190.13 1551.5,1190C 1554.37,1189.87 1556.7,1188.7 1558.5,1186.5C 1559.95,1187.62 1561.62,1188.28 1563.5,1188.5C 1588.86,1186.4 1614.02,1184.07 1639,1181.5C 1641.64,1181.66 1644.14,1182.32 1646.5,1183.5C 1651.43,1181.31 1651.93,1178.98 1648,1176.5C 1647.48,1177.52 1646.65,1178.18 1645.5,1178.5C 1637.47,1175 1638.13,1173.66 1647.5,1174.5C 1647.5,1173.5 1647.5,1172.5 1647.5,1171.5 Z"/></g>
<g><path style="opacity:1" fill="#e4e3e3" d="M 2027.5,1183.5 C 2029.16,1184.74 2030.33,1186.41 2031,1188.5C 2031.33,1187.83 2031.67,1187.17 2032,1186.5C 2034.07,1187.26 2036.24,1187.76 2038.5,1188C 2074.23,1189.38 2109.9,1191.71 2145.5,1195C 2153.13,1197.07 2160.63,1197.57 2168,1196.5C 2183.7,1199.43 2199.53,1201.77 2215.5,1203.5C 2215.5,1207.17 2215.5,1210.83 2215.5,1214.5C 2154.78,1204.38 2093.45,1198.05 2031.5,1195.5C 2031.5,1194.5 2031.5,1193.5 2031.5,1192.5C 2029.18,1193.81 2026.84,1193.81 2024.5,1192.5C 2021.26,1192.78 2020.92,1193.62 2023.5,1195C 2022.55,1195.48 2021.55,1195.65 2020.5,1195.5C 2020.5,1194.5 2020.5,1193.5 2020.5,1192.5C 2018.78,1192.63 2017.12,1192.96 2015.5,1193.5C 2019.18,1189.82 2023.18,1186.49 2027.5,1183.5 Z"/></g>
<g><path style="opacity:1" fill="#e4e4e4" d="M 1669.5,1182.5 C 1680.69,1187.59 1691.69,1192.93 1702.5,1198.5C 1700.05,1198.68 1697.88,1198.01 1696,1196.5C 1693.35,1197.68 1690.69,1197.68 1688,1196.5C 1684.18,1199.09 1680.01,1199.93 1675.5,1199C 1677.5,1198.67 1679.5,1198.33 1681.5,1198C 1676.31,1197.7 1671.14,1197.2 1666,1196.5C 1649.59,1199.19 1633.09,1201.19 1616.5,1202.5C 1615.83,1202.17 1615.17,1201.83 1614.5,1201.5C 1586.35,1205.26 1558.19,1209.6 1530,1214.5C 1510.7,1217.78 1491.53,1222.62 1472.5,1229C 1467.68,1231.54 1463.35,1234.71 1459.5,1238.5C 1458.31,1239.43 1456.98,1239.76 1455.5,1239.5C 1455.33,1243.18 1455.5,1246.85 1456,1250.5C 1458.38,1252.26 1460.55,1254.26 1462.5,1256.5C 1463.39,1257.32 1463.72,1258.32 1463.5,1259.5C 1469.05,1260.25 1474.39,1261.58 1479.5,1263.5C 1479.5,1264.5 1479.5,1265.5 1479.5,1266.5C 1494.29,1269.73 1508.62,1273.4 1522.5,1277.5C 1523.17,1277.17 1523.83,1276.83 1524.5,1276.5C 1578.35,1286.69 1632.68,1293.19 1687.5,1296C 1816.29,1303.54 1944.96,1303.21 2073.5,1295C 2120.91,1291.32 2168.24,1285.49 2215.5,1277.5C 2215.5,1280.83 2215.5,1284.17 2215.5,1287.5C 2199.63,1289.09 2183.79,1291.76 2168,1295.5C 2161.09,1294.47 2154.26,1295.13 2147.5,1297.5C 2145.77,1297.41 2144.11,1297.08 2142.5,1296.5C 2122.08,1299.11 2101.58,1301.11 2081,1302.5C 2079.21,1301.96 2077.37,1301.63 2075.5,1301.5C 2065.54,1302.4 2055.71,1303.73 2046,1305.5C 2043.37,1304.91 2040.71,1304.58 2038,1304.5C 1906.4,1310.88 1774.9,1309.55 1643.5,1300.5C 1641.77,1300.59 1640.11,1300.92 1638.5,1301.5C 1618.37,1299.01 1598.2,1296.68 1578,1294.5C 1574.7,1295.8 1571.54,1295.46 1568.5,1293.5C 1564.95,1293.55 1561.45,1293.55 1558,1293.5C 1542.85,1290.98 1527.68,1288.65 1512.5,1286.5C 1511.83,1286.83 1511.17,1287.17 1510.5,1287.5C 1498.36,1284.1 1486.03,1281.43 1473.5,1279.5C 1472.31,1279.76 1471.14,1280.09 1470,1280.5C 1467.7,1277.57 1464.87,1276.57 1461.5,1277.5C 1457.36,1275 1452.86,1273.33 1448,1272.5C 1447.28,1273.06 1446.44,1273.39 1445.5,1273.5C 1437.78,1270.32 1429.78,1267.99 1421.5,1266.5C 1421.36,1264.88 1422.03,1263.71 1423.5,1263C 1421.67,1262.71 1419.84,1262.88 1418,1263.5C 1414.37,1261.38 1410.87,1259.04 1407.5,1256.5C 1406.31,1255.57 1404.98,1255.24 1403.5,1255.5C 1403.83,1252.5 1402.5,1251.17 1399.5,1251.5C 1399.18,1248.43 1399.52,1245.43 1400.5,1242.5C 1402.46,1240.76 1403.79,1238.59 1404.5,1236C 1411.7,1232.92 1418.7,1229.42 1425.5,1225.5C 1433.19,1223.1 1440.86,1220.6 1448.5,1218C 1455.71,1216.91 1463.04,1215.08 1470.5,1212.5C 1473.63,1213.54 1476.46,1212.88 1479,1210.5C 1480.47,1212.9 1481.97,1212.74 1483.5,1210C 1489.91,1209.99 1496.24,1208.82 1502.5,1206.5C 1503.17,1206.83 1503.83,1207.17 1504.5,1207.5C 1513.43,1205.46 1522.43,1203.62 1531.5,1202C 1551.9,1200.13 1571.9,1197.79 1591.5,1195C 1610.88,1194.56 1630.38,1193.06 1650,1190.5C 1652.09,1190.54 1654.09,1190.87 1656,1191.5C 1657.71,1190.54 1659.54,1189.87 1661.5,1189.5C 1663.86,1190.68 1666.2,1190.68 1668.5,1189.5C 1671.78,1191.43 1675.11,1191.27 1678.5,1189C 1675.85,1187.7 1673.19,1186.37 1670.5,1185C 1669.75,1184.33 1669.41,1183.5 1669.5,1182.5 Z"/></g>
<g><path style="opacity:1" fill="#dddddd" d="M 2215.5,1214.5 C 2215.5,1218.17 2215.5,1221.83 2215.5,1225.5C 2187.76,1219.03 2159.76,1213.86 2131.5,1210C 2093.28,1205.41 2054.94,1202.08 2016.5,1200C 2017.17,1199.33 2017.83,1198.67 2018.5,1198C 2017.06,1197.78 2015.73,1197.28 2014.5,1196.5C 2015.13,1195.58 2015.46,1194.58 2015.5,1193.5C 2017.12,1192.96 2018.78,1192.63 2020.5,1192.5C 2020.5,1193.5 2020.5,1194.5 2020.5,1195.5C 2021.55,1195.65 2022.55,1195.48 2023.5,1195C 2020.92,1193.62 2021.26,1192.78 2024.5,1192.5C 2026.84,1193.81 2029.18,1193.81 2031.5,1192.5C 2031.5,1193.5 2031.5,1194.5 2031.5,1195.5C 2093.45,1198.05 2154.78,1204.38 2215.5,1214.5 Z"/></g>
<g><path style="opacity:1" fill="#dddddd" d="M 1702.5,1198.5 C 1703.81,1199.47 1704.47,1200.8 1704.5,1202.5C 1701.25,1202.58 1698.42,1201.58 1696,1199.5C 1694.9,1200.97 1693.4,1201.8 1691.5,1202C 1639.06,1205.06 1587.06,1212.06 1535.5,1223C 1526.83,1225.87 1518.16,1228.87 1509.5,1232C 1507.1,1234.06 1504.43,1235.73 1501.5,1237C 1497.66,1240.79 1495.82,1245.29 1496,1250.5C 1501.79,1255.5 1508.29,1259.66 1515.5,1263C 1561.51,1275.97 1608.34,1283.81 1656,1286.5C 1674.21,1288.25 1692.38,1290.25 1710.5,1292.5C 1714.1,1291.69 1717.6,1291.36 1721,1291.5C 1741.72,1292.64 1762.39,1293.97 1783,1295.5C 1836.42,1295.59 1889.92,1295.42 1943.5,1295C 1969.71,1294.35 1995.88,1293.18 2022,1291.5C 2024.59,1292.04 2027.26,1291.71 2030,1290.5C 2033.33,1290.51 2036.66,1290.84 2040,1291.5C 2049.14,1290.27 2058.31,1288.93 2067.5,1287.5C 2069.37,1287.63 2071.21,1287.96 2073,1288.5C 2104.1,1285.46 2134.93,1281.62 2165.5,1277C 2182.34,1274.12 2199,1270.62 2215.5,1266.5C 2215.5,1270.17 2215.5,1273.83 2215.5,1277.5C 2168.24,1285.49 2120.91,1291.32 2073.5,1295C 1944.96,1303.21 1816.29,1303.54 1687.5,1296C 1632.68,1293.19 1578.35,1286.69 1524.5,1276.5C 1523.83,1276.83 1523.17,1277.17 1522.5,1277.5C 1508.62,1273.4 1494.29,1269.73 1479.5,1266.5C 1479.5,1265.5 1479.5,1264.5 1479.5,1263.5C 1474.39,1261.58 1469.05,1260.25 1463.5,1259.5C 1463.72,1258.32 1463.39,1257.32 1462.5,1256.5C 1460.55,1254.26 1458.38,1252.26 1456,1250.5C 1455.5,1246.85 1455.33,1243.18 1455.5,1239.5C 1456.98,1239.76 1458.31,1239.43 1459.5,1238.5C 1463.35,1234.71 1467.68,1231.54 1472.5,1229C 1491.53,1222.62 1510.7,1217.78 1530,1214.5C 1558.19,1209.6 1586.35,1205.26 1614.5,1201.5C 1615.17,1201.83 1615.83,1202.17 1616.5,1202.5C 1633.09,1201.19 1649.59,1199.19 1666,1196.5C 1671.14,1197.2 1676.31,1197.7 1681.5,1198C 1679.5,1198.33 1677.5,1198.67 1675.5,1199C 1680.01,1199.93 1684.18,1199.09 1688,1196.5C 1690.69,1197.68 1693.35,1197.68 1696,1196.5C 1697.88,1198.01 1700.05,1198.68 1702.5,1198.5 Z"/></g>
<g><path style="opacity:1" fill="#d7d7d7" d="M 2015.5,1193.5 C 2015.46,1194.58 2015.13,1195.58 2014.5,1196.5C 2015.73,1197.28 2017.06,1197.78 2018.5,1198C 2017.83,1198.67 2017.17,1199.33 2016.5,1200C 2054.94,1202.08 2093.28,1205.41 2131.5,1210C 2159.76,1213.86 2187.76,1219.03 2215.5,1225.5C 2215.5,1239.17 2215.5,1252.83 2215.5,1266.5C 2199,1270.62 2182.34,1274.12 2165.5,1277C 2134.93,1281.62 2104.1,1285.46 2073,1288.5C 2071.21,1287.96 2069.37,1287.63 2067.5,1287.5C 2058.31,1288.93 2049.14,1290.27 2040,1291.5C 2036.66,1290.84 2033.33,1290.51 2030,1290.5C 2027.26,1291.71 2024.59,1292.04 2022,1291.5C 1995.88,1293.18 1969.71,1294.35 1943.5,1295C 1889.92,1295.42 1836.42,1295.59 1783,1295.5C 1762.39,1293.97 1741.72,1292.64 1721,1291.5C 1717.6,1291.36 1714.1,1291.69 1710.5,1292.5C 1692.38,1290.25 1674.21,1288.25 1656,1286.5C 1608.34,1283.81 1561.51,1275.97 1515.5,1263C 1508.29,1259.66 1501.79,1255.5 1496,1250.5C 1495.82,1245.29 1497.66,1240.79 1501.5,1237C 1504.43,1235.73 1507.1,1234.06 1509.5,1232C 1518.16,1228.87 1526.83,1225.87 1535.5,1223C 1587.06,1212.06 1639.06,1205.06 1691.5,1202C 1693.4,1201.8 1694.9,1200.97 1696,1199.5C 1698.42,1201.58 1701.25,1202.58 1704.5,1202.5C 1704.47,1200.8 1703.81,1199.47 1702.5,1198.5C 1709.47,1200.6 1716.14,1203.26 1722.5,1206.5C 1717.29,1204.99 1711.96,1203.99 1706.5,1203.5C 1706.72,1204.68 1706.39,1205.68 1705.5,1206.5C 1661.14,1208.68 1616.81,1214.18 1572.5,1223C 1564.11,1225.18 1555.78,1227.51 1547.5,1230C 1544.2,1231.32 1541.2,1233.15 1538.5,1235.5C 1537.55,1234.67 1536.55,1234.51 1535.5,1235C 1535.83,1235.33 1536.17,1235.67 1536.5,1236C 1524.54,1242.74 1524.54,1249.74 1536.5,1257C 1554.17,1264.32 1572.51,1269.65 1591.5,1273C 1628.52,1278.92 1665.35,1283.42 1702,1286.5C 1702.87,1286.26 1703.71,1285.93 1704.5,1285.5C 1740.05,1288.85 1775.72,1290.69 1811.5,1291C 1854.22,1291.45 1896.88,1291.62 1939.5,1291.5C 1996.64,1289.78 2053.31,1285.61 2109.5,1279C 2141.49,1276.07 2172.49,1269.07 2202.5,1258C 2204.94,1255.6 2207.61,1253.44 2210.5,1251.5C 2211.94,1249.98 2212.6,1248.15 2212.5,1246C 2212.21,1243.81 2211.88,1241.65 2211.5,1239.5C 2210.17,1239.5 2208.83,1239.5 2207.5,1239.5C 2207.72,1238.32 2207.39,1237.32 2206.5,1236.5C 2204.03,1235.2 2201.7,1233.7 2199.5,1232C 2156.95,1219.59 2113.62,1212.09 2069.5,1209.5C 2052.57,1207.25 2035.57,1205.75 2018.5,1205C 2015.99,1204.91 2013.83,1204.07 2012,1202.5C 2011.62,1203.06 2011.12,1203.39 2010.5,1203.5C 2009.5,1202.17 2008.5,1200.83 2007.5,1199.5C 2009.86,1197.15 2012.53,1195.15 2015.5,1193.5 Z"/></g>
<g><path style="opacity:1" fill="#d1d1d1" d="M 1722.5,1206.5 C 1722.53,1207.5 1722.03,1208.16 1721,1208.5C 1716.1,1205.84 1711.27,1206.01 1706.5,1209C 1707.97,1209.71 1708.64,1210.88 1708.5,1212.5C 1698.64,1212.32 1688.81,1212.32 1679,1212.5C 1669.02,1214.08 1659.02,1215.75 1649,1217.5C 1624.43,1219.38 1600.27,1224.38 1576.5,1232.5C 1575.91,1232.29 1575.41,1231.96 1575,1231.5C 1571.57,1233.8 1568.07,1235.96 1564.5,1238C 1563.3,1238.9 1562.47,1240.07 1562,1241.5C 1561.33,1240.83 1560.67,1240.17 1560,1239.5C 1560.35,1242.54 1560.18,1245.54 1559.5,1248.5C 1561.83,1251.17 1564.17,1253.83 1566.5,1256.5C 1567.09,1256.29 1567.59,1255.96 1568,1255.5C 1572.73,1258.89 1577.89,1261.39 1583.5,1263C 1593.81,1265.48 1604.14,1267.98 1614.5,1270.5C 1646.23,1274.97 1678.23,1278.97 1710.5,1282.5C 1711.29,1282.07 1712.13,1281.74 1713,1281.5C 1743.96,1283.94 1774.79,1285.94 1805.5,1287.5C 1849.17,1287.5 1893,1287.5 1937,1287.5C 1957.51,1286.12 1978.01,1284.78 1998.5,1283.5C 1999.29,1283.93 2000.13,1284.26 2001,1284.5C 2017.81,1282.64 2034.65,1280.97 2051.5,1279.5C 2086.91,1277.54 2121.58,1272.04 2155.5,1263C 2161.99,1261.06 2168.32,1258.73 2174.5,1256C 2175.34,1254.99 2175.67,1253.82 2175.5,1252.5C 2179.33,1252.16 2181.33,1250 2181.5,1246C 2180.96,1243.6 2180.29,1241.27 2179.5,1239C 2168.29,1233.61 2156.62,1229.27 2144.5,1226C 2099.41,1216.51 2053.91,1211.34 2008,1210.5C 2006.29,1209.69 2005.46,1208.36 2005.5,1206.5C 2004.5,1206.5 2003.5,1206.5 2002.5,1206.5C 2002.5,1207.83 2002.5,1209.17 2002.5,1210.5C 2000.41,1210.55 1999.08,1209.55 1998.5,1207.5C 2000.16,1206.67 2001.5,1205.51 2002.5,1204C 2004.56,1203.44 2006.4,1203.94 2008,1205.5C 2009.3,1205.36 2010.13,1204.69 2010.5,1203.5C 2011.12,1203.39 2011.62,1203.06 2012,1202.5C 2013.83,1204.07 2015.99,1204.91 2018.5,1205C 2035.57,1205.75 2052.57,1207.25 2069.5,1209.5C 2113.62,1212.09 2156.95,1219.59 2199.5,1232C 2201.7,1233.7 2204.03,1235.2 2206.5,1236.5C 2207.39,1237.32 2207.72,1238.32 2207.5,1239.5C 2208.83,1239.5 2210.17,1239.5 2211.5,1239.5C 2211.88,1241.65 2212.21,1243.81 2212.5,1246C 2212.6,1248.15 2211.94,1249.98 2210.5,1251.5C 2207.61,1253.44 2204.94,1255.6 2202.5,1258C 2172.49,1269.07 2141.49,1276.07 2109.5,1279C 2053.31,1285.61 1996.64,1289.78 1939.5,1291.5C 1896.88,1291.62 1854.22,1291.45 1811.5,1291C 1775.72,1290.69 1740.05,1288.85 1704.5,1285.5C 1703.71,1285.93 1702.87,1286.26 1702,1286.5C 1665.35,1283.42 1628.52,1278.92 1591.5,1273C 1572.51,1269.65 1554.17,1264.32 1536.5,1257C 1524.54,1249.74 1524.54,1242.74 1536.5,1236C 1536.17,1235.67 1535.83,1235.33 1535.5,1235C 1536.55,1234.51 1537.55,1234.67 1538.5,1235.5C 1541.2,1233.15 1544.2,1231.32 1547.5,1230C 1555.78,1227.51 1564.11,1225.18 1572.5,1223C 1616.81,1214.18 1661.14,1208.68 1705.5,1206.5C 1706.39,1205.68 1706.72,1204.68 1706.5,1203.5C 1711.96,1203.99 1717.29,1204.99 1722.5,1206.5 Z"/></g>
<g><path style="opacity:1" fill="#cbcbcb" d="M 2007.5,1199.5 C 2008.5,1200.83 2009.5,1202.17 2010.5,1203.5C 2010.13,1204.69 2009.3,1205.36 2008,1205.5C 2006.4,1203.94 2004.56,1203.44 2002.5,1204C 2001.5,1205.51 2000.16,1206.67 1998.5,1207.5C 1999.08,1209.55 2000.41,1210.55 2002.5,1210.5C 2002.5,1209.17 2002.5,1207.83 2002.5,1206.5C 2003.5,1206.5 2004.5,1206.5 2005.5,1206.5C 2005.46,1208.36 2006.29,1209.69 2008,1210.5C 2053.91,1211.34 2099.41,1216.51 2144.5,1226C 2156.62,1229.27 2168.29,1233.61 2179.5,1239C 2180.29,1241.27 2180.96,1243.6 2181.5,1246C 2181.33,1250 2179.33,1252.16 2175.5,1252.5C 2175.67,1253.82 2175.34,1254.99 2174.5,1256C 2168.32,1258.73 2161.99,1261.06 2155.5,1263C 2121.58,1272.04 2086.91,1277.54 2051.5,1279.5C 2034.65,1280.97 2017.81,1282.64 2001,1284.5C 2000.13,1284.26 1999.29,1283.93 1998.5,1283.5C 1978.01,1284.78 1957.51,1286.12 1937,1287.5C 1893,1287.5 1849.17,1287.5 1805.5,1287.5C 1774.79,1285.94 1743.96,1283.94 1713,1281.5C 1712.13,1281.74 1711.29,1282.07 1710.5,1282.5C 1678.23,1278.97 1646.23,1274.97 1614.5,1270.5C 1604.14,1267.98 1593.81,1265.48 1583.5,1263C 1577.89,1261.39 1572.73,1258.89 1568,1255.5C 1567.59,1255.96 1567.09,1256.29 1566.5,1256.5C 1564.17,1253.83 1561.83,1251.17 1559.5,1248.5C 1560.18,1245.54 1560.35,1242.54 1560,1239.5C 1560.67,1240.17 1561.33,1240.83 1562,1241.5C 1562.47,1240.07 1563.3,1238.9 1564.5,1238C 1568.07,1235.96 1571.57,1233.8 1575,1231.5C 1575.41,1231.96 1575.91,1232.29 1576.5,1232.5C 1600.27,1224.38 1624.43,1219.38 1649,1217.5C 1659.02,1215.75 1669.02,1214.08 1679,1212.5C 1688.81,1212.32 1698.64,1212.32 1708.5,1212.5C 1708.64,1210.88 1707.97,1209.71 1706.5,1209C 1711.27,1206.01 1716.1,1205.84 1721,1208.5C 1722.03,1208.16 1722.53,1207.5 1722.5,1206.5C 1727.74,1208.13 1732.74,1210.13 1737.5,1212.5C 1735.94,1212.48 1734.44,1212.15 1733,1211.5C 1730.04,1213.23 1726.87,1214.23 1723.5,1214.5C 1723.72,1213.32 1723.39,1212.32 1722.5,1211.5C 1721.5,1212.83 1720.5,1212.83 1719.5,1211.5C 1714.31,1212.49 1714.31,1213.66 1719.5,1215C 1683.64,1217.03 1647.98,1222.03 1612.5,1230C 1604.93,1232.69 1597.59,1235.86 1590.5,1239.5C 1586.52,1242.11 1585.68,1245.44 1588,1249.5C 1591.05,1251.1 1593.55,1253.26 1595.5,1256C 1617.59,1263.62 1640.26,1268.95 1663.5,1272C 1758.86,1283.18 1854.52,1286.35 1950.5,1281.5C 1951.45,1281.99 1952.45,1282.32 1953.5,1282.5C 1979.38,1280.92 2005.38,1279.09 2031.5,1277C 2066.75,1274.45 2101.08,1268.78 2134.5,1260C 2140.32,1257.84 2145.82,1255.01 2151,1251.5C 2151.55,1249.39 2152.39,1247.39 2153.5,1245.5C 2152.35,1243.67 2151.68,1241.67 2151.5,1239.5C 2145.52,1237.14 2139.52,1234.64 2133.5,1232C 2089.64,1220.98 2045.3,1214.81 2000.5,1213.5C 1997.24,1213.22 1995.24,1211.55 1994.5,1208.5C 1998.53,1205.14 2002.87,1202.14 2007.5,1199.5 Z"/></g>
<g><path style="opacity:1" fill="#c4c4c4" d="M 1994.5,1208.5 C 1995.24,1211.55 1997.24,1213.22 2000.5,1213.5C 2045.3,1214.81 2089.64,1220.98 2133.5,1232C 2139.52,1234.64 2145.52,1237.14 2151.5,1239.5C 2151.68,1241.67 2152.35,1243.67 2153.5,1245.5C 2152.39,1247.39 2151.55,1249.39 2151,1251.5C 2145.82,1255.01 2140.32,1257.84 2134.5,1260C 2101.08,1268.78 2066.75,1274.45 2031.5,1277C 2005.38,1279.09 1979.38,1280.92 1953.5,1282.5C 1952.45,1282.32 1951.45,1281.99 1950.5,1281.5C 1854.52,1286.35 1758.86,1283.18 1663.5,1272C 1640.26,1268.95 1617.59,1263.62 1595.5,1256C 1593.55,1253.26 1591.05,1251.1 1588,1249.5C 1585.68,1245.44 1586.52,1242.11 1590.5,1239.5C 1597.59,1235.86 1604.93,1232.69 1612.5,1230C 1647.98,1222.03 1683.64,1217.03 1719.5,1215C 1714.31,1213.66 1714.31,1212.49 1719.5,1211.5C 1720.5,1212.83 1721.5,1212.83 1722.5,1211.5C 1723.39,1212.32 1723.72,1213.32 1723.5,1214.5C 1726.87,1214.23 1730.04,1213.23 1733,1211.5C 1734.44,1212.15 1735.94,1212.48 1737.5,1212.5C 1740.1,1212.62 1742.1,1213.62 1743.5,1215.5C 1730.59,1217.01 1717.59,1218.68 1704.5,1220.5C 1681.37,1222.13 1658.7,1225.63 1636.5,1231C 1629.06,1234.38 1621.4,1237.21 1613.5,1239.5C 1613.02,1242 1612.02,1244.34 1610.5,1246.5C 1611.74,1250.41 1614.41,1252.41 1618.5,1252.5C 1618.5,1253.5 1618.5,1254.5 1618.5,1255.5C 1626.96,1257.49 1635.29,1259.99 1643.5,1263C 1661.46,1266.21 1679.46,1269.21 1697.5,1272C 1814.92,1283.63 1932.58,1283.3 2050.5,1271C 2069.73,1268.52 2088.73,1264.85 2107.5,1260C 2111.09,1258.47 2114.76,1257.14 2118.5,1256C 2117.35,1255.09 2117.51,1254.25 2119,1253.5C 2119.31,1254.31 2119.81,1254.97 2120.5,1255.5C 2123.79,1253.7 2126.63,1251.37 2129,1248.5C 2130.19,1246.96 2130.52,1245.29 2130,1243.5C 2129,1242.17 2128,1242.17 2127,1243.5C 2125.98,1242.11 2125.15,1240.61 2124.5,1239C 2121.17,1237.33 2117.83,1235.67 2114.5,1234C 2087.32,1226.75 2059.65,1221.75 2031.5,1219C 2020.48,1218.24 2009.48,1217.24 1998.5,1216C 1995.53,1214 1992.19,1213 1988.5,1213C 1989.38,1212.29 1990.05,1211.46 1990.5,1210.5C 1991.51,1209.33 1992.85,1208.66 1994.5,1208.5 Z"/></g>
<g><path style="opacity:1" fill="#bebebe" d="M 1990.5,1210.5 C 1990.05,1211.46 1989.38,1212.29 1988.5,1213C 1992.19,1213 1995.53,1214 1998.5,1216C 2009.48,1217.24 2020.48,1218.24 2031.5,1219C 2059.65,1221.75 2087.32,1226.75 2114.5,1234C 2117.83,1235.67 2121.17,1237.33 2124.5,1239C 2125.15,1240.61 2125.98,1242.11 2127,1243.5C 2128,1242.17 2129,1242.17 2130,1243.5C 2130.52,1245.29 2130.19,1246.96 2129,1248.5C 2126.63,1251.37 2123.79,1253.7 2120.5,1255.5C 2119.81,1254.97 2119.31,1254.31 2119,1253.5C 2117.51,1254.25 2117.35,1255.09 2118.5,1256C 2114.76,1257.14 2111.09,1258.47 2107.5,1260C 2088.73,1264.85 2069.73,1268.52 2050.5,1271C 1932.58,1283.3 1814.92,1283.63 1697.5,1272C 1679.46,1269.21 1661.46,1266.21 1643.5,1263C 1635.29,1259.99 1626.96,1257.49 1618.5,1255.5C 1618.5,1254.5 1618.5,1253.5 1618.5,1252.5C 1614.41,1252.41 1611.74,1250.41 1610.5,1246.5C 1612.02,1244.34 1613.02,1242 1613.5,1239.5C 1621.4,1237.21 1629.06,1234.38 1636.5,1231C 1658.7,1225.63 1681.37,1222.13 1704.5,1220.5C 1717.59,1218.68 1730.59,1217.01 1743.5,1215.5C 1744.5,1215.5 1745.5,1215.5 1746.5,1215.5C 1745.99,1216.86 1744.99,1217.86 1743.5,1218.5C 1744.39,1219.59 1745.39,1219.59 1746.5,1218.5C 1747.7,1218.85 1747.7,1219.35 1746.5,1220C 1714.36,1221.7 1682.69,1226.36 1651.5,1234C 1646.58,1236.25 1642.08,1238.42 1638,1240.5C 1633.36,1244.67 1633.53,1248.5 1638.5,1252C 1649.05,1256.85 1660.05,1260.52 1671.5,1263C 1724.56,1271.9 1777.9,1276.56 1831.5,1277C 1900.84,1278.76 1969.84,1275.76 2038.5,1268C 2059.9,1265.48 2080.57,1260.48 2100.5,1253C 2102.15,1250.02 2103.82,1247.52 2105.5,1245.5C 2104.94,1243.6 2103.94,1241.93 2102.5,1240.5C 2089.22,1234.06 2075.39,1230.06 2061,1228.5C 2034.65,1222.6 2008.15,1219.6 1981.5,1219.5C 1979.97,1219.57 1978.97,1218.91 1978.5,1217.5C 1982.21,1214.81 1986.21,1212.48 1990.5,1210.5 Z"/></g>
<g><path style="opacity:1" fill="#b8b8b8" d="M 1746.5,1215.5 C 1751.22,1216.42 1755.55,1218.08 1759.5,1220.5C 1742.97,1222.86 1726.3,1225.02 1709.5,1227C 1696.67,1228.9 1684,1231.57 1671.5,1235C 1665.88,1236.64 1660.71,1239.14 1656,1242.5C 1655.55,1245.39 1656.22,1248.06 1658,1250.5C 1660.29,1251.82 1662.45,1253.32 1664.5,1255C 1694.62,1263.76 1725.28,1268.6 1756.5,1269.5C 1762.73,1270.94 1769.07,1271.77 1775.5,1272C 1856.02,1276.48 1936.19,1274.98 2016,1267.5C 2037.67,1264.86 2058.84,1260.03 2079.5,1253C 2086.93,1248.44 2087.1,1243.94 2080,1239.5C 2070.05,1235.47 2059.88,1232.31 2049.5,1230C 2028.59,1226.68 2007.59,1224.01 1986.5,1222C 1984.75,1221.22 1983.08,1220.38 1981.5,1219.5C 2008.15,1219.6 2034.65,1222.6 2061,1228.5C 2075.39,1230.06 2089.22,1234.06 2102.5,1240.5C 2103.94,1241.93 2104.94,1243.6 2105.5,1245.5C 2103.82,1247.52 2102.15,1250.02 2100.5,1253C 2080.57,1260.48 2059.9,1265.48 2038.5,1268C 1969.84,1275.76 1900.84,1278.76 1831.5,1277C 1777.9,1276.56 1724.56,1271.9 1671.5,1263C 1660.05,1260.52 1649.05,1256.85 1638.5,1252C 1633.53,1248.5 1633.36,1244.67 1638,1240.5C 1642.08,1238.42 1646.58,1236.25 1651.5,1234C 1682.69,1226.36 1714.36,1221.7 1746.5,1220C 1747.7,1219.35 1747.7,1218.85 1746.5,1218.5C 1745.39,1219.59 1744.39,1219.59 1743.5,1218.5C 1744.99,1217.86 1745.99,1216.86 1746.5,1215.5 Z"/></g>
<g><path style="opacity:1" fill="#b2b2b2" d="M 1978.5,1217.5 C 1978.97,1218.91 1979.97,1219.57 1981.5,1219.5C 1983.08,1220.38 1984.75,1221.22 1986.5,1222C 2007.59,1224.01 2028.59,1226.68 2049.5,1230C 2059.88,1232.31 2070.05,1235.47 2080,1239.5C 2087.1,1243.94 2086.93,1248.44 2079.5,1253C 2058.84,1260.03 2037.67,1264.86 2016,1267.5C 1936.19,1274.98 1856.02,1276.48 1775.5,1272C 1769.07,1271.77 1762.73,1270.94 1756.5,1269.5C 1725.28,1268.6 1694.62,1263.76 1664.5,1255C 1662.45,1253.32 1660.29,1251.82 1658,1250.5C 1656.22,1248.06 1655.55,1245.39 1656,1242.5C 1660.71,1239.14 1665.88,1236.64 1671.5,1235C 1684,1231.57 1696.67,1228.9 1709.5,1227C 1726.3,1225.02 1742.97,1222.86 1759.5,1220.5C 1763.8,1221.23 1767.8,1222.57 1771.5,1224.5C 1768.98,1224.44 1766.65,1225.11 1764.5,1226.5C 1762.81,1226.24 1761.31,1225.57 1760,1224.5C 1759.54,1225.74 1760.04,1226.58 1761.5,1227C 1759.51,1227.94 1757.51,1228.77 1755.5,1229.5C 1752.1,1228.11 1748.6,1226.78 1745,1225.5C 1730.59,1228.49 1716.09,1231.32 1701.5,1234C 1693.96,1235.75 1687.12,1238.92 1681,1243.5C 1680.32,1244.78 1680.48,1245.95 1681.5,1247C 1680.83,1247.33 1680.17,1247.67 1679.5,1248C 1685.13,1252.34 1691.46,1255.34 1698.5,1257C 1728.46,1263.7 1758.79,1267.7 1789.5,1269C 1858.86,1273.24 1928.2,1271.91 1997.5,1265C 2012.66,1263.23 2027.66,1260.57 2042.5,1257C 2047.89,1255.14 2053.23,1252.98 2058.5,1250.5C 2059.73,1249.35 2059.73,1248.18 2058.5,1247C 2060.42,1245.76 2060.75,1244.26 2059.5,1242.5C 2054.17,1239.33 2048.5,1236.83 2042.5,1235C 2021.37,1230.5 2000.03,1227.17 1978.5,1225C 1979.67,1224.58 1980.67,1223.91 1981.5,1223C 1978.46,1222.97 1975.63,1223.8 1973,1225.5C 1970.98,1225.2 1970.48,1224.37 1971.5,1223C 1970.21,1222.51 1968.87,1222.34 1967.5,1222.5C 1970.74,1220.05 1974.41,1218.38 1978.5,1217.5 Z"/></g>
<g><path style="opacity:1" fill="#ababab" d="M 1967.5,1222.5 C 1968.87,1222.34 1970.21,1222.51 1971.5,1223C 1970.48,1224.37 1970.98,1225.2 1973,1225.5C 1975.63,1223.8 1978.46,1222.97 1981.5,1223C 1980.67,1223.91 1979.67,1224.58 1978.5,1225C 2000.03,1227.17 2021.37,1230.5 2042.5,1235C 2048.5,1236.83 2054.17,1239.33 2059.5,1242.5C 2060.75,1244.26 2060.42,1245.76 2058.5,1247C 2059.73,1248.18 2059.73,1249.35 2058.5,1250.5C 2053.23,1252.98 2047.89,1255.14 2042.5,1257C 2027.66,1260.57 2012.66,1263.23 1997.5,1265C 1928.2,1271.91 1858.86,1273.24 1789.5,1269C 1758.79,1267.7 1728.46,1263.7 1698.5,1257C 1691.46,1255.34 1685.13,1252.34 1679.5,1248C 1680.17,1247.67 1680.83,1247.33 1681.5,1247C 1680.48,1245.95 1680.32,1244.78 1681,1243.5C 1687.12,1238.92 1693.96,1235.75 1701.5,1234C 1716.09,1231.32 1730.59,1228.49 1745,1225.5C 1748.6,1226.78 1752.1,1228.11 1755.5,1229.5C 1743.06,1230.35 1730.73,1232.18 1718.5,1235C 1711.16,1236.71 1704.5,1239.71 1698.5,1244C 1698.76,1245.26 1699.43,1246.26 1700.5,1247C 1699.27,1248.18 1699.27,1249.35 1700.5,1250.5C 1712.95,1255.96 1725.95,1259.46 1739.5,1261C 1822.09,1271.01 1904.76,1271.68 1987.5,1263C 2004.62,1261.24 2021.29,1257.58 2037.5,1252C 2038.69,1250.65 2040.02,1249.48 2041.5,1248.5C 2042.63,1246.93 2042.8,1245.26 2042,1243.5C 2037.14,1239.87 2031.64,1237.37 2025.5,1236C 2009.72,1232.6 1993.89,1229.77 1978,1227.5C 1975.51,1227.56 1973.01,1227.9 1970.5,1228.5C 1968.96,1228.21 1967.62,1227.54 1966.5,1226.5C 1965.15,1227.95 1963.48,1228.62 1961.5,1228.5C 1960.13,1228.66 1958.79,1228.49 1957.5,1228C 1961.06,1226.23 1964.4,1224.4 1967.5,1222.5 Z"/></g>
<g><path style="opacity:1" fill="#a5a5a5" d="M 1771.5,1224.5 C 1771.83,1224.5 1772.17,1224.5 1772.5,1224.5C 1773.59,1226.12 1775.26,1226.95 1777.5,1227C 1776.17,1228 1774.83,1229 1773.5,1230C 1768.89,1229.6 1764.22,1229.93 1759.5,1231C 1747.05,1233.49 1734.72,1236.49 1722.5,1240C 1714.53,1243.87 1714.53,1247.87 1722.5,1252C 1740,1257.5 1757.83,1260.67 1776,1261.5C 1796.35,1264.35 1816.85,1265.85 1837.5,1266C 1886.64,1267.51 1935.47,1265.68 1984,1260.5C 1995.6,1258.06 2007.1,1255.23 2018.5,1252C 2025.29,1247.47 2024.96,1243.47 2017.5,1240C 2013.69,1239.02 2010.19,1237.52 2007,1235.5C 2005.06,1236.86 2003.4,1236.53 2002,1234.5C 1992.26,1233.8 1982.43,1232.47 1972.5,1230.5C 1971.31,1230.76 1970.14,1231.09 1969,1231.5C 1965.97,1231.29 1963.47,1230.29 1961.5,1228.5C 1963.48,1228.62 1965.15,1227.95 1966.5,1226.5C 1967.62,1227.54 1968.96,1228.21 1970.5,1228.5C 1973.01,1227.9 1975.51,1227.56 1978,1227.5C 1993.89,1229.77 2009.72,1232.6 2025.5,1236C 2031.64,1237.37 2037.14,1239.87 2042,1243.5C 2042.8,1245.26 2042.63,1246.93 2041.5,1248.5C 2040.02,1249.48 2038.69,1250.65 2037.5,1252C 2021.29,1257.58 2004.62,1261.24 1987.5,1263C 1904.76,1271.68 1822.09,1271.01 1739.5,1261C 1725.95,1259.46 1712.95,1255.96 1700.5,1250.5C 1699.27,1249.35 1699.27,1248.18 1700.5,1247C 1699.43,1246.26 1698.76,1245.26 1698.5,1244C 1704.5,1239.71 1711.16,1236.71 1718.5,1235C 1730.73,1232.18 1743.06,1230.35 1755.5,1229.5C 1757.51,1228.77 1759.51,1227.94 1761.5,1227C 1760.04,1226.58 1759.54,1225.74 1760,1224.5C 1761.31,1225.57 1762.81,1226.24 1764.5,1226.5C 1766.65,1225.11 1768.98,1224.44 1771.5,1224.5 Z"/></g>
<g><path style="opacity:1" fill="#a09f9f" d="M 1967.5,1222.5 C 1964.4,1224.4 1961.06,1226.23 1957.5,1228C 1958.79,1228.49 1960.13,1228.66 1961.5,1228.5C 1963.47,1230.29 1965.97,1231.29 1969,1231.5C 1970.14,1231.09 1971.31,1230.76 1972.5,1230.5C 1982.43,1232.47 1992.26,1233.8 2002,1234.5C 2003.4,1236.53 2005.06,1236.86 2007,1235.5C 2010.19,1237.52 2013.69,1239.02 2017.5,1240C 2024.96,1243.47 2025.29,1247.47 2018.5,1252C 2007.1,1255.23 1995.6,1258.06 1984,1260.5C 1935.47,1265.68 1886.64,1267.51 1837.5,1266C 1816.85,1265.85 1796.35,1264.35 1776,1261.5C 1757.83,1260.67 1740,1257.5 1722.5,1252C 1714.53,1247.87 1714.53,1243.87 1722.5,1240C 1734.72,1236.49 1747.05,1233.49 1759.5,1231C 1764.22,1229.93 1768.89,1229.6 1773.5,1230C 1774.83,1229 1776.17,1228 1777.5,1227C 1775.26,1226.95 1773.59,1226.12 1772.5,1224.5C 1778.98,1226.04 1785.31,1227.7 1791.5,1229.5C 1790.67,1230.75 1789.33,1231.41 1787.5,1231.5C 1772.23,1232.77 1757.23,1235.43 1742.5,1239.5C 1741.91,1239.29 1741.41,1238.96 1741,1238.5C 1738.99,1240.85 1736.65,1242.85 1734,1244.5C 1733.33,1245.83 1733.33,1247.17 1734,1248.5C 1742,1252.63 1750.5,1255.46 1759.5,1257C 1826.37,1265.75 1893.37,1266.75 1960.5,1260C 1973.03,1258.59 1985.36,1256.26 1997.5,1253C 2000.38,1252.04 2003.04,1250.71 2005.5,1249C 2007.16,1247.56 2007.82,1245.72 2007.5,1243.5C 2003.23,1241.7 1998.9,1239.87 1994.5,1238C 1980.32,1234.78 1965.99,1232.61 1951.5,1231.5C 1951.5,1230.5 1951.5,1229.5 1951.5,1228.5C 1956.54,1225.93 1961.87,1223.93 1967.5,1222.5 Z"/></g>
<g><path style="opacity:1" fill="#999898" d="M 1951.5,1228.5 C 1951.5,1229.5 1951.5,1230.5 1951.5,1231.5C 1965.99,1232.61 1980.32,1234.78 1994.5,1238C 1998.9,1239.87 2003.23,1241.7 2007.5,1243.5C 2007.82,1245.72 2007.16,1247.56 2005.5,1249C 2003.04,1250.71 2000.38,1252.04 1997.5,1253C 1985.36,1256.26 1973.03,1258.59 1960.5,1260C 1893.37,1266.75 1826.37,1265.75 1759.5,1257C 1750.5,1255.46 1742,1252.63 1734,1248.5C 1733.33,1247.17 1733.33,1245.83 1734,1244.5C 1736.65,1242.85 1738.99,1240.85 1741,1238.5C 1741.41,1238.96 1741.91,1239.29 1742.5,1239.5C 1757.23,1235.43 1772.23,1232.77 1787.5,1231.5C 1789.33,1231.41 1790.67,1230.75 1791.5,1229.5C 1794.57,1229.87 1797.57,1230.54 1800.5,1231.5C 1800.21,1232.65 1799.38,1233.32 1798,1233.5C 1784.14,1234.8 1770.64,1237.64 1757.5,1242C 1752.17,1245 1752.17,1248 1757.5,1251C 1769.59,1254.55 1781.92,1256.89 1794.5,1258C 1853.89,1264.22 1913.22,1262.89 1972.5,1254C 1977.43,1253.11 1981.93,1251.28 1986,1248.5C 1986.67,1246.83 1986.67,1245.17 1986,1243.5C 1982.37,1242.4 1979.04,1240.74 1976,1238.5C 1967.45,1237.52 1958.78,1235.86 1950,1233.5C 1947.23,1234.35 1944.4,1234.68 1941.5,1234.5C 1941.5,1233.5 1941.5,1232.5 1941.5,1231.5C 1944.59,1229.89 1947.93,1228.89 1951.5,1228.5 Z"/></g>
<g><path style="opacity:1" fill="#9d704a" d="M 1807.5,1232.5 C 1811.78,1232.38 1815.95,1233.04 1820,1234.5C 1823.63,1233.62 1827.29,1232.96 1831,1232.5C 1832.5,1232.83 1834,1233.17 1835.5,1233.5C 1833.58,1234.31 1831.58,1234.81 1829.5,1235C 1829.83,1235.33 1830.17,1235.67 1830.5,1236C 1833.69,1236.18 1836.69,1236.68 1839.5,1237.5C 1837.83,1237.5 1836.17,1237.5 1834.5,1237.5C 1830.63,1237.81 1826.96,1237.48 1823.5,1236.5C 1818.03,1235.79 1812.69,1234.45 1807.5,1232.5 Z"/></g>
<g><path style="opacity:1" fill="#929291" d="M 1800.5,1231.5 C 1803.06,1231.2 1805.39,1231.53 1807.5,1232.5C 1812.69,1234.45 1818.03,1235.79 1823.5,1236.5C 1816.18,1237.04 1808.84,1237.37 1801.5,1237.5C 1791.31,1237.04 1781.31,1238.54 1771.5,1242C 1770.17,1243.67 1768.83,1245.33 1767.5,1247C 1770.37,1248.93 1773.37,1250.6 1776.5,1252C 1806.4,1257.51 1836.57,1260.01 1867,1259.5C 1899.43,1260.15 1931.6,1257.65 1963.5,1252C 1966.21,1250.45 1969.04,1249.29 1972,1248.5C 1972.44,1246.32 1971.94,1244.32 1970.5,1242.5C 1963.88,1240.67 1957.05,1238.67 1950,1236.5C 1948.36,1236.98 1947.19,1237.98 1946.5,1239.5C 1942.29,1236.93 1937.62,1235.43 1932.5,1235C 1935.48,1234.5 1938.48,1234.34 1941.5,1234.5C 1944.4,1234.68 1947.23,1234.35 1950,1233.5C 1958.78,1235.86 1967.45,1237.52 1976,1238.5C 1979.04,1240.74 1982.37,1242.4 1986,1243.5C 1986.67,1245.17 1986.67,1246.83 1986,1248.5C 1981.93,1251.28 1977.43,1253.11 1972.5,1254C 1913.22,1262.89 1853.89,1264.22 1794.5,1258C 1781.92,1256.89 1769.59,1254.55 1757.5,1251C 1752.17,1248 1752.17,1245 1757.5,1242C 1770.64,1237.64 1784.14,1234.8 1798,1233.5C 1799.38,1233.32 1800.21,1232.65 1800.5,1231.5 Z"/></g>
<g><path style="opacity:1" fill="#8c8c8c" d="M 1801.5,1237.5 C 1793.83,1239 1786.83,1242.17 1780.5,1247C 1790.05,1251.18 1800.05,1253.85 1810.5,1255C 1841.46,1257.36 1872.46,1258.03 1903.5,1257C 1917.96,1256.35 1932.29,1254.68 1946.5,1252C 1950.9,1251.24 1954.9,1249.57 1958.5,1247C 1956.18,1242.67 1952.51,1240.67 1947.5,1241C 1946.94,1240.62 1946.61,1240.12 1946.5,1239.5C 1947.19,1237.98 1948.36,1236.98 1950,1236.5C 1957.05,1238.67 1963.88,1240.67 1970.5,1242.5C 1971.94,1244.32 1972.44,1246.32 1972,1248.5C 1969.04,1249.29 1966.21,1250.45 1963.5,1252C 1931.6,1257.65 1899.43,1260.15 1867,1259.5C 1836.57,1260.01 1806.4,1257.51 1776.5,1252C 1773.37,1250.6 1770.37,1248.93 1767.5,1247C 1768.83,1245.33 1770.17,1243.67 1771.5,1242C 1781.31,1238.54 1791.31,1237.04 1801.5,1237.5 Z"/></g>
<g><path style="opacity:1" fill="#878686" d="M 1941.5,1231.5 C 1941.5,1232.5 1941.5,1233.5 1941.5,1234.5C 1938.48,1234.34 1935.48,1234.5 1932.5,1235C 1937.62,1235.43 1942.29,1236.93 1946.5,1239.5C 1946.61,1240.12 1946.94,1240.62 1947.5,1241C 1952.51,1240.67 1956.18,1242.67 1958.5,1247C 1954.9,1249.57 1950.9,1251.24 1946.5,1252C 1932.29,1254.68 1917.96,1256.35 1903.5,1257C 1872.46,1258.03 1841.46,1257.36 1810.5,1255C 1800.05,1253.85 1790.05,1251.18 1780.5,1247C 1786.83,1242.17 1793.83,1239 1801.5,1237.5C 1808.84,1237.37 1816.18,1237.04 1823.5,1236.5C 1826.96,1237.48 1830.63,1237.81 1834.5,1237.5C 1834.5,1237.83 1834.5,1238.17 1834.5,1238.5C 1825.48,1238.62 1816.48,1239.12 1807.5,1240C 1809.17,1240.33 1810.83,1240.67 1812.5,1241C 1807.5,1241.15 1802.67,1241.98 1798,1243.5C 1798.15,1244.82 1797.98,1245.99 1797.5,1247C 1804.72,1250.59 1812.39,1252.59 1820.5,1253C 1856.37,1256.57 1892.04,1256.24 1927.5,1252C 1931.28,1251.41 1934.94,1250.41 1938.5,1249C 1939.54,1247.38 1940.54,1245.72 1941.5,1244C 1940.21,1242.21 1938.71,1242.05 1937,1243.5C 1928.75,1240.48 1920.25,1238.82 1911.5,1238.5C 1914.17,1237.83 1916.83,1237.17 1919.5,1236.5C 1926.74,1234.86 1934.07,1233.19 1941.5,1231.5 Z"/></g>
<g><path style="opacity:1" fill="#957556" d="M 1919.5,1236.5 C 1916.83,1237.17 1914.17,1237.83 1911.5,1238.5C 1910.83,1238.5 1910.17,1238.5 1909.5,1238.5C 1907.5,1238.5 1905.5,1238.5 1903.5,1238.5C 1908.6,1237.04 1913.93,1236.38 1919.5,1236.5 Z"/></g>
<g><path style="opacity:1" fill="#7f8080" d="M 1834.5,1238.5 C 1835.04,1238.56 1835.38,1238.89 1835.5,1239.5C 1829.22,1240.73 1822.89,1241.56 1816.5,1242C 1814.96,1243.11 1814.3,1244.61 1814.5,1246.5C 1815.15,1248.12 1817.48,1249.29 1821.5,1250C 1852.44,1254.25 1883.44,1254.58 1914.5,1251C 1919.55,1249.79 1924.55,1248.46 1929.5,1247C 1927.12,1246.03 1927.46,1245.36 1930.5,1245C 1926.74,1243.98 1923.07,1242.65 1919.5,1241C 1915.51,1240.5 1911.51,1240.33 1907.5,1240.5C 1908.17,1239.83 1908.83,1239.17 1909.5,1238.5C 1910.17,1238.5 1910.83,1238.5 1911.5,1238.5C 1920.25,1238.82 1928.75,1240.48 1937,1243.5C 1938.71,1242.05 1940.21,1242.21 1941.5,1244C 1940.54,1245.72 1939.54,1247.38 1938.5,1249C 1934.94,1250.41 1931.28,1251.41 1927.5,1252C 1892.04,1256.24 1856.37,1256.57 1820.5,1253C 1812.39,1252.59 1804.72,1250.59 1797.5,1247C 1797.98,1245.99 1798.15,1244.82 1798,1243.5C 1802.67,1241.98 1807.5,1241.15 1812.5,1241C 1810.83,1240.67 1809.17,1240.33 1807.5,1240C 1816.48,1239.12 1825.48,1238.62 1834.5,1238.5 Z"/></g>
<g><path style="opacity:1" fill="#7a7979" d="M 1834.5,1238.5 C 1834.5,1238.17 1834.5,1237.83 1834.5,1237.5C 1836.17,1237.5 1837.83,1237.5 1839.5,1237.5C 1844.79,1238.76 1850.12,1239.76 1855.5,1240.5C 1846.32,1240.27 1837.32,1241.44 1828.5,1244C 1826.83,1245 1825.17,1246 1823.5,1247C 1824.9,1247.59 1826.23,1247.43 1827.5,1246.5C 1828.91,1247.81 1830.58,1248.64 1832.5,1249C 1857.51,1252.32 1882.51,1252.32 1907.5,1249C 1909.68,1248.56 1910.35,1247.56 1909.5,1246C 1910.5,1245.67 1911.5,1245.33 1912.5,1245C 1905.95,1243.22 1899.29,1242.22 1892.5,1242C 1897.31,1240.56 1902.31,1240.06 1907.5,1240.5C 1911.51,1240.33 1915.51,1240.5 1919.5,1241C 1923.07,1242.65 1926.74,1243.98 1930.5,1245C 1927.46,1245.36 1927.12,1246.03 1929.5,1247C 1924.55,1248.46 1919.55,1249.79 1914.5,1251C 1883.44,1254.58 1852.44,1254.25 1821.5,1250C 1817.48,1249.29 1815.15,1248.12 1814.5,1246.5C 1814.3,1244.61 1814.96,1243.11 1816.5,1242C 1822.89,1241.56 1829.22,1240.73 1835.5,1239.5C 1835.38,1238.89 1835.04,1238.56 1834.5,1238.5 Z"/></g>
<g><path style="opacity:1" fill="#717171" d="M 1903.5,1238.5 C 1905.5,1238.5 1907.5,1238.5 1909.5,1238.5C 1908.83,1239.17 1908.17,1239.83 1907.5,1240.5C 1902.31,1240.06 1897.31,1240.56 1892.5,1242C 1899.29,1242.22 1905.95,1243.22 1912.5,1245C 1911.5,1245.33 1910.5,1245.67 1909.5,1246C 1910.35,1247.56 1909.68,1248.56 1907.5,1249C 1882.51,1252.32 1857.51,1252.32 1832.5,1249C 1830.58,1248.64 1828.91,1247.81 1827.5,1246.5C 1826.23,1247.43 1824.9,1247.59 1823.5,1247C 1825.17,1246 1826.83,1245 1828.5,1244C 1837.32,1241.44 1846.32,1240.27 1855.5,1240.5C 1871.7,1240.83 1887.7,1240.16 1903.5,1238.5 Z"/></g>
<g><path style="opacity:1" fill="#f8ece1" d="M 603.5,1290.5 C 604.043,1290.56 604.376,1290.89 604.5,1291.5C 603.624,1292.25 602.624,1292.75 601.5,1293C 587.321,1295.12 573.321,1294.95 559.5,1292.5C 572.171,1292.67 584.838,1292.5 597.5,1292C 599.708,1291.81 601.708,1291.31 603.5,1290.5 Z"/></g>
</svg>
